<svg id="Layer_1" data-name="Layer 1" xmlns="http://www.w3.org/2000/svg" viewBox="0 0 1033.8 134.4"><defs><style>.cls-1{fill:#00535e;}</style></defs><polygon class="cls-1" points="93.7 2.3 54.1 134.4 74.2 134.4 115 2.3 93.7 2.3"/><polygon class="cls-1" points="54.1 2.3 0 42.6 54.1 81.4 54.1 62.3 28 41.8 54.1 23.1 54.1 2.3"/><polygon class="cls-1" points="936.6 117 1009.6 117 1033.8 131.8 956.2 131.8 936.6 117"/><path class="cls-1" d="M108.8,131.8,144.8,7h25.5l36,124.8H187.9L158.3,22.1h-1.5L127.2,131.8Zm16.7-30.5V84.6h63.2v16.7Z" transform="translate(0 0.1)"/><path class="cls-1" d="M224.6,131.8V-.1h18.6V130.2Zm25,1.7c-4.3,0-8.4-.1-12.5-.5l-12.5-1.2,7.2-17.1a28.4,28.4,0,0,0,10.3,2.6c3.7.3,7.5.4,11.2.4,11.1,0,19.8-3.4,25.9-10.1s9.2-16.3,9.2-28.6c0-8.4-1.8-14.9-5.6-19.5s-9-6.8-15.8-6.8c-15.9,0-23.8,8.9-23.8,26.7l-5.4-23.9H245c.9-12.5,8.5-18.7,22.8-18.7,12.5,0,22.1,3.7,28.9,11S306.9,65.5,306.9,79q0,25.9-15,40.2C281.9,128.8,267.8,133.5,249.6,133.5Z" transform="translate(0 0.1)"/><path class="cls-1" d="M368.5,133.5c-12.9,0-22.9-4.2-30.1-12.6s-10.7-20.4-10.7-35.7,3.6-27.3,10.7-35.8,17.2-12.6,30.1-12.6,23,4.2,30.1,12.6,10.7,20.4,10.7,35.8-3.6,27.2-10.7,35.7S381.4,133.5,368.5,133.5Zm0-16.7c6.8,0,12.1-2.7,15.8-8.2s5.6-13.3,5.6-23.4-1.8-18-5.6-23.4a18,18,0,0,0-15.8-8.3c-6.9,0-12.2,2.8-15.9,8.3S347,75,347,85.2s1.9,17.8,5.6,23.4S361.6,116.8,368.5,116.8Z" transform="translate(0 0.1)"/><path class="cls-1" d="M464.8,133.5c-9.8,0-17.3-2.9-22.7-8.7s-8.1-14.1-8.1-24.7V38.6h18.7v61.5c0,5.4,1.5,9.5,4.6,12.4s7.3,4.3,12.8,4.3,11.9-2.1,15.4-6.4,5.2-11.6,5.2-21.7l4.7,25.1h-6.2c-1.4,6.4-4.3,11.2-8.6,14.6S471.1,133.5,464.8,133.5Zm25.9-28.1V38.6h18.6v61.5Zm1.5,27.2-1.5-22.3V94h18.6v20.9l12.8,1.9v15Z" transform="translate(0 0.1)"/><path class="cls-1" d="M532.8,53.9V38.6h84.4V53.9Zm23.4,33.9V10.5h18.6V87.8Zm40.1,45.7c-14.1,0-24.3-2.9-30.6-8.8s-9.5-15.2-9.5-28.1V80.8h18.6V95.7c0,7.4,1.9,12.8,5.5,16.1s9.5,5,17.8,5a76.5,76.5,0,0,0,9.3-.5l11.2-1.2,2.1,16.3c-4.1.7-8.1,1.2-12,1.6S600.7,133.5,596.3,133.5Z" transform="translate(0 0.1)"/><path class="cls-1" d="M748.9,131.8V7h16.8V131.8Zm33.4-51L768,29.1h-5.1V7h12.5l14.3,53.6h.7l1.7,20.2Zm5.1,0L790,60.6h1.1L805.3,7h12.5V29.1h-5.1L798.4,80.8Zm27.6,51V7h16.8V131.8Z" transform="translate(0 0.1)"/><path class="cls-1" d="M904.8,133.5c-15.9,0-28.1-4.2-36.8-12.5s-13-20.4-13-36,3.7-27.1,11-35.5,17.7-12.7,31.1-12.7,22.3,3.8,29.2,11.5S936.6,67,936.6,81.5c0,4.3-.2,8.2-.5,11.9H870.7V79.2h49c0-8.4-2-14.8-5.9-19.3s-9.5-6.7-16.6-6.7-14,2.7-18.4,8.1-6.5,13-6.5,22.8,3,19,9,24.6,14.5,8.5,25.6,8.5a105.7,105.7,0,0,0,11.4-.7c3.8-.4,7.6-1,11.5-1.8l2.2,16.4a134.1,134.1,0,0,1-15.1,2C912.3,133.4,908.3,133.5,904.8,133.5Z" transform="translate(0 0.1)"/></svg>