<svg id="Layer_1" data-name="Layer 1" xmlns="http://www.w3.org/2000/svg" viewBox="0 0 822.8 132.2"><defs><style>.cls-1{fill:#00535e;}</style></defs><polygon class="cls-1" points="93.7 0 54.1 132.2 74.2 132.2 115 0 93.7 0"/><polygon class="cls-1" points="54.1 0 0 40.3 54.1 79.1 54.1 60 28 39.6 54.1 20.9 54.1 0"/><polygon class="cls-1" points="725.7 114.8 798.7 114.8 822.8 129.6 745.2 129.6 725.7 114.8"/><path class="cls-1" d="M117.1,129.6V4.8h17.6V129.6Zm16.4,0V112.9h13.8c12.9,0,22.5-3.7,29-11s9.7-18.3,9.7-33-3.2-27.7-9.7-35.6-16.1-11.8-29-11.8H133.8L131.7,4.8h15.6q57.1,0,57.2,64.1,0,60.8-57.2,60.7Z"/><path class="cls-1" d="M263,131.3q-19.4,0-30-12.6T222.2,83q0-23.1,10.8-35.7c7.1-8.4,17.1-12.7,30-12.7s23,4.3,30.1,12.7S303.8,67.6,303.8,83s-3.6,27.2-10.7,35.7S276,131.3,263,131.3Zm0-16.7c6.9,0,12.2-2.7,15.9-8.2s5.6-13.3,5.6-23.4-1.9-18-5.6-23.4-9-8.3-15.9-8.3a18.3,18.3,0,0,0-15.9,8.3c-3.7,5.4-5.5,13.3-5.5,23.4s1.8,17.9,5.5,23.4A18.2,18.2,0,0,0,263,114.6Z"/><path class="cls-1" d="M330.5,129.6V36.4h16.9l1.7,19.7v73.5Zm57.3,0V68.9c0-5.6-1.4-9.9-4.4-13s-7-4.6-12.3-4.6c-14.6,0-22,8.7-22,25.9l-5.4-23.9h7.2c.5-6.3,2.8-11,6.9-14s9.9-4.7,17.7-4.7c9.9,0,17.5,3,22.9,9s8.1,14.4,8.1,25.3v60.7Z"/><path class="cls-1" d="M460.2,131.3c-9.7,0-17.2-2.3-22.5-7s-8-11.3-8-19.9,3.6-17.4,11-22.6,17.7-8,31.1-8a93.5,93.5,0,0,1,14.9,1.1,47.6,47.6,0,0,1,11.7,3l-3.9,12.6A77.1,77.1,0,0,0,483,89l-11.5-.2c-16.2,0-24.3,4.9-24.3,14.8,0,4.1,1.4,7.2,4.2,9.4s6.7,3.4,11.8,3.4,10.7-1,14.6-3a21.1,21.1,0,0,0,8.7-7.6,17.6,17.6,0,0,0,2.9-9.6V86l5.5,23.9h-7.4l3-2.8a23.1,23.1,0,0,1-3.8,13.5,21.8,21.8,0,0,1-10.5,8A42.9,42.9,0,0,1,460.2,131.3Zm32.9-.9-1.2-27.5-2.5-7.8V71c0-6.2-2.2-10.7-6.5-13.6s-10.9-4.5-19.5-4.7l-22.3-.6,1.7-16.6,18.8.3c15.5.2,26.9,3.5,34.4,10s11.2,15.7,11.2,28v38.9l15.8,1.9v15Z"/><path class="cls-1" d="M532.8,51.7V36.4h84.4V51.7Zm23.4,33.9V8.3h18.6V85.6Zm40.1,45.7c-14.1,0-24.3-2.9-30.6-8.8s-9.5-15.2-9.5-28.1V78.6h18.6V93.5c0,7.4,1.9,12.8,5.5,16.1s9.5,5,17.8,5a76.5,76.5,0,0,0,9.3-.5l11.2-1.2,2.1,16.3c-4.1.7-8.1,1.2-12,1.6A122.3,122.3,0,0,1,596.3,131.3Z"/><path class="cls-1" d="M693.9,131.3c-15.9,0-28.2-4.1-36.8-12.5s-13-20.3-13-36,3.7-27.1,11-35.5,17.7-12.7,31-12.7,22.4,3.9,29.2,11.5,10.4,18.7,10.4,33.2a108.7,108.7,0,0,1-.6,11.9H659.8V77h49c0-8.4-2-14.8-6-19.3S693.3,51,686.3,51s-14.1,2.7-18.4,8.1-6.6,13-6.6,22.8,3,19,9,24.6S684.9,115,696,115a87.2,87.2,0,0,0,11.4-.7q5.6-.6,11.4-1.8l2.3,16.4a134.1,134.1,0,0,1-15.1,2C701.4,131.2,697.4,131.3,693.9,131.3Z"/></svg>