<svg id="Layer_1" data-name="Layer 1" xmlns="http://www.w3.org/2000/svg" viewBox="0 0 1037.74 132.76"><defs><style>.cls-1{fill:#00535e;}</style></defs><polygon class="cls-1" points="93.72 0.59 54.15 132.76 74.15 132.76 115.02 0.59 93.72 0.59"/><polygon class="cls-1" points="54.15 0.59 0 40.93 54.15 79.72 54.15 60.59 27.98 40.16 54.15 21.46 54.15 0.59"/><polygon class="cls-1" points="940.57 115.37 1013.61 115.37 1037.74 130.16 960.13 130.16 940.57 115.37"/><path class="cls-1" d="M191.55,180V58.73h17.76V180Zm0-105V58.73h80.28V75Zm0,57.57V116.29h64.9v16.23Z" transform="translate(-61.15 -49.84)"/><path class="cls-1" d="M329.9,181.71q-18.78,0-29.21-12.3t-10.42-34.67q0-22.47,10.42-34.72T329.9,87.76q18.87,0,29.25,12.26t10.38,34.72q0,22.37-10.38,34.67T329.9,181.71Zm0-16.23q10,0,15.42-8t5.42-22.71q0-14.78-5.42-22.76t-15.42-8q-10,0-15.41,8t-5.43,22.76q0,14.69,5.43,22.71T329.9,165.48Z" transform="translate(-61.15 -49.84)"/><path class="cls-1" d="M388,180V164.12h60.46V180Zm3.41-74.64V89.47h30.24l1.7,15.89ZM408.13,180V89.47h14.69l3.42,26V180Zm18.11-38.94-5.3-28.36h7q1.53-24.93,24.93-24.94,14,0,20.33,8t6.32,26H461.6q0-9.9-3-14.26t-9.52-4.35q-11.53,0-17.21,9.86T426.24,141.06Z" transform="translate(-61.15 -49.84)"/><path class="cls-1" d="M497.29,180V164.12h36.22V180Zm5.13-74.64V89.47H549.9v15.89Zm37.83-30.24a12.68,12.68,0,0,1-12.64-12.64,12.64,12.64,0,1,1,25.28,0,12.6,12.6,0,0,1-12.64,12.64ZM531.8,180V94.6h18.1V180Zm16.4,0V164.12h29.54V180Z" transform="translate(-61.15 -49.84)"/><path class="cls-1" d="M659.05,180l-27.5-39.11L595.17,89.47h20.49l27.85,40.65,36,49.88Zm-63.88,0,36-49.88,27.84-40.65h20.5l-37.41,51.42L615.66,180Z" transform="translate(-61.15 -49.84)"/><path class="cls-1" d="M726.52,181.71q-14.17,0-21.95-6.83t-7.77-19.31q0-14.34,10.72-22t30.27-7.69a94.93,94.93,0,0,1,14.48,1,52.3,52.3,0,0,1,11.32,2.94l-3.76,12.3a62.57,62.57,0,0,0-11.19-1.49c-3.65-.15-7.37-.22-11.19-.22q-23.57,0-23.57,14.35,0,6,4.06,9.22t11.48,3.25q8.46,0,14.14-2.9a21,21,0,0,0,8.5-7.43,17.47,17.47,0,0,0,2.81-9.31v-9.91l5.3,23.23H753l2.91-2.73c0,5.24-1.21,9.6-3.63,13.11a21.7,21.7,0,0,1-10.21,7.85A42,42,0,0,1,726.52,181.71Zm31.94-.86L757.27,154l-2.4-7.52v-23.4q0-9-6.36-13.28t-18.92-4.57l-21.69-.6,1.71-16,18.28.25q22.46.34,33.35,9.7t10.89,27.28V163.6l15.37,1.88V180Z" transform="translate(-61.15 -49.84)"/><path class="cls-1" d="M804.75,180V164.12H841V180Zm5.12-74.64V89.47h47.49v15.89Zm37.84-30.24a12.67,12.67,0,0,1-12.64-12.64,12.14,12.14,0,0,1,3.71-9,12.65,12.65,0,0,1,17.9,17.89A12.12,12.12,0,0,1,847.71,75.12ZM839.25,180V94.6h18.11V180Zm16.4,0V164.12H885.2V180Z" transform="translate(-61.15 -49.84)"/><path class="cls-1" d="M903.14,180V89.47h16.05l2,19.13V180Zm34,0V109.11q0-7.68-7.18-7.68-8.7,0-8.71,12.3l-5.29-13h5.8q1-13,15.55-13,7.08,0,11.14,4.87t4.06,14.78V180Zm31.26,0V110.82q0-9.39-7-9.39-8.88,0-8.88,12.3l-6.15-13h7a14.31,14.31,0,0,1,4.23-9.13q3.79-3.85,11-3.85,9.39,0,13.66,5t4.27,16.31V180Z" transform="translate(-61.15 -49.84)"/></svg>