<svg id="Layer_1" data-name="Layer 1" xmlns="http://www.w3.org/2000/svg" viewBox="0 0 1037.7 176.1"><defs><style>.cls-1{fill:#00535e;}</style></defs><polygon class="cls-1" points="93.7 4.4 54.1 136.5 74.2 136.5 115 4.4 93.7 4.4"/><polygon class="cls-1" points="54.1 4.4 0 44.7 54.1 83.5 54.1 64.4 28 43.9 54.1 25.2 54.1 4.4"/><polygon class="cls-1" points="940.6 119.2 1013.6 119.2 1037.7 133.9 960.1 133.9 940.6 119.2"/><path class="cls-1" d="M118.9,136.8V12h17.6V136.8Zm15.4-38.6V81.5h21.3c9.6,0,16.9-2.4,21.8-7.2s7.4-11.7,7.4-20.9-2.5-14.3-7.4-18.4-12.2-6.3-21.8-6.3H134.7V12h20.9c15.7,0,27.5,3.5,35.6,10.5s12,17.3,12,30.9-4,25.8-12,33.4-19.9,11.4-35.6,11.4Z" transform="translate(0 -2.9)"/><path class="cls-1" d="M217.3,136.8V121.6h62.2v15.2ZM220.8,59V43.7h31.1L253.7,59Zm17.3,77.8V43.7h15.1l3.5,26.7v66.4Zm18.6-40-5.5-29.2h7.2c1.1-17.1,9.7-25.7,25.7-25.7,9.6,0,16.6,2.8,20.9,8.3s6.5,14.4,6.5,26.7H293.1c0-6.8-1-11.7-3.1-14.7s-5.2-4.5-9.8-4.5q-11.8,0-17.7,10.2C258.6,74.7,256.7,84.3,256.7,96.8Z" transform="translate(0 -2.9)"/><path class="cls-1" d="M368.5,138.6c-12.9,0-22.9-4.2-30.1-12.7s-10.7-20.3-10.7-35.6,3.6-27.4,10.7-35.8,17.2-12.6,30.1-12.6,23,4.2,30.1,12.6,10.7,20.4,10.7,35.8-3.6,27.2-10.7,35.6S381.4,138.6,368.5,138.6Zm0-16.7c6.8,0,12.1-2.7,15.8-8.3s5.6-13.3,5.6-23.3-1.8-18-5.6-23.5a18.1,18.1,0,0,0-15.8-8.2c-6.9,0-12.2,2.8-15.9,8.2S347,80.1,347,90.3s1.9,17.8,5.6,23.3S361.6,121.9,368.5,121.9Z" transform="translate(0 -2.9)"/><path class="cls-1" d="M437,179l-.8-16.5,17.5-1.6c9.5-.8,16.3-3.6,20.6-8.2s6.3-11.8,6.3-21.3V103.1h18.7v25.5c0,11.1-1.7,20.1-5,27A32.4,32.4,0,0,1,479,171.3c-7,3.6-16,5.8-27,6.7Zm7.4-120V43.7H482V59ZM488,28.9a13,13,0,0,1-13-13,12.6,12.6,0,0,1,3.8-9.2A12.8,12.8,0,0,1,488,2.9a12.6,12.6,0,0,1,9.2,3.8,12.2,12.2,0,0,1,3.8,9.2,12.4,12.4,0,0,1-3.8,9.2A12.6,12.6,0,0,1,488,28.9Zm-7.4,77.2V43.7h18.7v62.4Z" transform="translate(0 -2.9)"/><path class="cls-1" d="M588.4,138.6c-15.9,0-28.2-4.2-36.8-12.5s-13-20.4-13-36,3.7-27.1,11-35.5,17.7-12.7,31.1-12.7,22.3,3.8,29.2,11.5S620.2,72,620.2,86.6c0,4.3-.2,8.2-.5,11.9H554.3V84.3h49c0-8.4-2-14.8-6-19.3s-9.4-6.7-16.5-6.7-14,2.7-18.4,8.1-6.5,13-6.5,22.8,3,19,9,24.6,14.5,8.5,25.6,8.5a105.7,105.7,0,0,0,11.4-.7,112.4,112.4,0,0,0,11.4-1.8l2.3,16.3a115.8,115.8,0,0,1-15.1,2.1C595.9,138.5,591.9,138.6,588.4,138.6Z" transform="translate(0 -2.9)"/><path class="cls-1" d="M693.9,138.6c-15.9,0-28.2-4.2-36.8-12.5s-13-20.4-13-36,4.1-27.1,12.3-35.5,19.8-12.7,35-12.7c9.1,0,16.9,1.7,23.3,5.1a29.2,29.2,0,0,1,13.9,14.3L714.2,72.1a28.4,28.4,0,0,0-10.1-10,26.8,26.8,0,0,0-13.4-3.5c-8.8,0-15.6,2.7-20.5,8s-7.3,12.8-7.3,22.6,2.9,18.7,8.6,24.3,13.9,8.4,24.5,8.4c4.3,0,8.6-.2,13-.6s8.5-1,12.6-1.7l2.1,16.4a116.2,116.2,0,0,1-14.9,2.1C703.7,138.4,698.7,138.6,693.9,138.6Z" transform="translate(0 -2.9)"/><path class="cls-1" d="M743.8,59V43.7h84.4V59Zm23.4,33.9V15.6h18.6V92.9Zm40,45.7c-14.1,0-24.3-2.9-30.6-8.8s-9.4-15.2-9.4-28.1V85.9h18.6v14.9c0,7.4,1.8,12.8,5.4,16.1s9.5,5,17.8,5c2.9,0,6-.2,9.3-.5s7-.7,11.3-1.3l2.1,16.4c-4.1.7-8.1,1.2-12,1.6S811.6,138.6,807.2,138.6Z" transform="translate(0 -2.9)"/><path class="cls-1" d="M888.6,138.6q-10.5,0-18-.6a103.8,103.8,0,0,1-13.8-2l2.1-16.9c6.2.9,11.6,1.6,16.3,2.1a126.8,126.8,0,0,0,13.4.7c9.5,0,16.3-.9,20.5-2.8s6.4-4.8,6.4-8.8-.7-4.9-2.2-6.3-3.8-2.4-6.9-3.2l-21.5-5.4c-9.2-2.4-15.9-5.3-20.2-8.7s-6.5-8.7-6.5-15.8c0-10.2,3.9-17.5,11.7-22.1s20.5-6.9,37.9-6.9c4.5,0,8.7.2,12.6.4s7.9.7,12,1.4l-1.9,16.2c-4.8-.5-9-.8-12.6-1l-10.6-.3c-10.5,0-18,.9-22.7,2.7s-7.1,4.7-7.1,8.8a6.5,6.5,0,0,0,2.9,5.8,33.5,33.5,0,0,0,8.9,3.3l17.2,4.2c9.8,2.4,17,5.5,21.5,9.4s6.8,9.7,6.8,17.2c0,10-3.6,17.3-10.9,21.8S904.8,138.6,888.6,138.6Z" transform="translate(0 -2.9)"/></svg>